<?xml version="1.0" encoding="utf-8"?>
<!-- Generator: Adobe Illustrator 25.4.1, SVG Export Plug-In . SVG Version: 6.00 Build 0)  -->
<svg version="1.1" id="Layer_1" xmlns="http://www.w3.org/2000/svg" xmlns:xlink="http://www.w3.org/1999/xlink" x="0px" y="0px"
	 viewBox="0 0 2494 2500" style="enable-background:new 0 0 2494 2500;" xml:space="preserve">
<style type="text/css">
	.st0{fill:#FFFFFF;}
</style>
<path class="st0" d="M1247.1,65.9c-688.6,0-1247,558.2-1247,1246.9c0,551,357.3,1018.4,852.8,1183.3c62.3,11.5,85.2-27,85.2-60
	c0-29.7-1.2-128-1.7-232.1c-346.9,75.4-420.1-147.1-420.1-147.1c-56.7-144.1-138.5-182.5-138.5-182.5c-113.2-77.4,8.5-75.8,8.5-75.8
	c125.2,8.8,191.2,128.5,191.2,128.5c111.3,190.7,291.7,135.5,362.8,103.7c11.2-80.6,43.5-135.6,79.2-166.7
	c-277-31.5-568.1-138.5-568.1-616.3c0-136.1,48.7-247.4,128.5-334.7c-12.9-31.3-55.6-158.1,12.1-329.9c0,0,104.8-33.5,343,127.8
	c99.4-27.6,206.1-41.5,312.2-42c106,0.5,212.7,14.3,312.4,42c238.1-161.3,342.6-127.8,342.6-127.8c67.9,171.8,25.1,298.6,12.2,330
	c79.9,87.3,128.3,198.6,128.3,334.7c0,478.9-291.7,584.5-569.4,615.3c44.8,38.7,84.6,114.6,84.6,230.9c0,166.8-1.4,301.1-1.4,342.2
	c0,33.1,22.4,72.1,85.6,59.8c495.2-165,852.1-632.3,852.1-1183.2C2494,624.1,1935.7,65.9,1247.1,65.9"/>
</svg>
