<svg width="1920" height="1080" viewBox="0 0 1920 1080" xmlns="http://www.w3.org/2000/svg">
  <defs>
    <linearGradient id="skyGradient" x1="0%" y1="0%" x2="0%" y2="100%">
      <stop offset="0%" style="stop-color:#0f0c29;stop-opacity:1" />
      <stop offset="50%" style="stop-color:#302b63;stop-opacity:1" />
      <stop offset="100%" style="stop-color:#24243e;stop-opacity:1" />
    </linearGradient>
  </defs>
  
  <!-- Sky Background -->
  <!-- <rect width="1920" height="1080" fill="url(#skyGradient)"/> -->
  <!-- Removed sky rect to allow transparency so NIPUN text can be behind if needed, or black bg shows through -->
  
  <!-- Back Layer Mountains -->
  <path d="M0,600 C300,500 600,700 900,550 C1200,400 1500,600 1920,500 L1920,1080 L0,1080 Z" fill="#2d1b4e" opacity="0.8"/>
  
  <!-- Mid Layer Mountains -->
  <path d="M0,800 C400,650 800,850 1200,700 C1500,600 1700,750 1920,680 L1920,1080 L0,1080 Z" fill="#1a0b2e"/>
  
  <!-- Front Layer Mountains -->
  <path d="M0,1080 C500,850 1000,1000 1500,900 C1700,850 1800,950 1920,980 L1920,1080 L0,1080 Z" fill="#05020a"/>
</svg>
