<?xml version="1.0" encoding="UTF-8"?>
<svg id="Layer_1" xmlns="http://www.w3.org/2000/svg" version="1.1" xmlns:xlink="http://www.w3.org/1999/xlink" viewBox="0 0 3994 2663">
  <!-- Generator: Adobe Illustrator 29.5.0, SVG Export Plug-In . SVG Version: 2.1.0 Build 137)  -->
  <defs>
    <style>
      .st0 {
        fill: url(#linear-gradient2);
      }

      .st1 {
        fill: #f3bd87;
      }

      .st2 {
        fill: url(#linear-gradient1);
      }

      .st3 {
        fill: #a73d48;
      }

      .st4 {
        fill: #961dab;
      }

      .st5 {
        fill: url(#linear-gradient4);
      }

      .st6 {
        fill: url(#linear-gradient5);
      }

      .st7 {
        fill: url(#linear-gradient3);
      }

      .st8 {
        fill: #140b26;
      }

      .st9 {
        fill: url(#linear-gradient);
      }

      .st10 {
        fill: #ee6659;
      }
    </style>
    <linearGradient id="linear-gradient" x1="1808.63" y1="1530.78" x2="1787.89" y2="1962.22" gradientTransform="translate(-2706.6 5429.82) scale(2.6 -2.6)" gradientUnits="userSpaceOnUse">
      <stop offset="0" stop-color="#ff7e49"/>
      <stop offset="1" stop-color="#a71fb8"/>
    </linearGradient>
    <linearGradient id="linear-gradient1" x1="1814.56" y1="840.2" x2="1799.58" y2="1427.71" gradientTransform="translate(-2706.6 5429.82) scale(2.6 -2.6)" gradientUnits="userSpaceOnUse">
      <stop offset="0" stop-color="#00010d"/>
      <stop offset="1" stop-color="#271537"/>
    </linearGradient>
    <linearGradient id="linear-gradient2" x1="1807.46" y1="1539.89" x2="1809.63" y2="2090.94" gradientTransform="translate(-2706.6 5429.82) scale(2.6 -2.6)" gradientUnits="userSpaceOnUse">
      <stop offset="0" stop-color="#ff5f66"/>
      <stop offset="1" stop-color="#400d8d"/>
    </linearGradient>
    <linearGradient id="linear-gradient3" x1="2166.87" y1="973.52" x2="1650.24" y2="1664.6" gradientTransform="translate(-2706.6 5429.82) scale(2.6 -2.6)" gradientUnits="userSpaceOnUse">
      <stop offset="0" stop-color="#2c1a48"/>
      <stop offset="1" stop-color="#5c254b"/>
    </linearGradient>
    <linearGradient id="linear-gradient4" x1="2534.51" y1="1352.08" x2="2530.19" y2="1405.67" gradientTransform="translate(-2706.6 5429.82) scale(2.6 -2.6)" gradientUnits="userSpaceOnUse">
      <stop offset="0" stop-color="#fae270"/>
      <stop offset="1" stop-color="#f5b892"/>
    </linearGradient>
    <linearGradient id="linear-gradient5" x1="1273.53" y1="1532.19" x2="1267.39" y2="1331.65" gradientTransform="translate(-2706.6 5429.82) scale(2.6 -2.6)" gradientUnits="userSpaceOnUse">
      <stop offset="0" stop-color="#f46b4e"/>
      <stop offset="1" stop-color="#f2d87c"/>
    </linearGradient>
  </defs>
  <path class="st9" d="M0,0h3994.51v2912.61H0V0Z"/>
  <path class="st2" d="M1366.55,1860.7l165.67-84.86c26.36-13.29,53.26-29.84,80.25-39.34,35.47-12.49,78.28-9.65,114.89-12.34,40.06-2.94,82.84-10.18,122.84-6.62,11.4,1.01,21.23,5.52,31.81,11.76,48.99,28.9,158.09,110.99,205.77,114.54,73.55,5.47,122.95-95.74,199.61-38.34,62.85,47.06,220.57,214.53,280.68,211.54,41.31-2.05,95.04-35.82,134.51-55.75,105.3-53.16,209.82-111.01,314.31-167.81,38.7-21.04,98.61-63.46,137.16-71.34,55.99-11.44,167.27,70.24,223.63,98.36,26.47,13.21,54.61,20.19,82,27.76l136.97,37.61c66.94,19.24,105.84,35.97,168.7,79.09,66.65,45.74,138.2,84.92,206.59,124.74,7.39,4.05,15.03,8.36,22.57,11.55v1104.84H0v-1148.68c76.46-60.89,150.97-127.39,227.66-187.47,23.66-18.53,61.02-13.04,87.3-13.36,41.49-.5,84.4,27.07,123.04,49.04,39.09,26.91,79.55,49.7,119.23,74.61,30.77,19.32,130.37,89.9,158.36,92.89,13.94,1.49,30.91-9.7,43.89-17.06,77.8-44.16,155.51-91.05,232.28-139.2,30.5-19.13,184-126.93,201.37-128.31,32.25-2.55,140.23,53.6,173.42,72.13Z"/>
  <path class="st8" d="M2589.57,2117.87c10.85,11.22,31.72,31.76,39.26,44.84.62,6.03.31,6.52-1.17,12.58l-.42,1.63c1.72,5.02,3.38,6.07,7.1,9.12l.16,4.51-2.21.53-4.97-4.63c-.31-.88.03-.26-1.82-2.08l-2.6-.62c-15.24-28.6-23.21-4.83-28.76-40.24l-9.37-1.87.07-3.32,7.31,1.91,2.63-2.02c.18-6.96-2.87-13.64-5.22-20.34Z"/>
  <path class="st8" d="M2798.26,2162.37c2.08.13,5.8,2.02,7.98,2.94,12.12,17.26,32.56,28.17,36.54,45.36,1.35,5.86,2.99,9.85,4.89,15.49l2.55,1.12,4.29-8.22,2.96-.62c4.24,6.03,5.1,11.46,7.1,18.78l-1.48.66c-2.52-5.13-4.16-10.35-8.19-13.18-1.74,5.87-.13,3.88-3.95,6.96l-5.77-2.96c-2.16-8.32-4.47-20.08-8.92-26.71-3.07,4.16-2.91,16.18-3.28,22.26l-2.81-1.04c-4.6-6.5-6.14-8.79-7.93-16.78l-8.06-2.55c-6.55-10.67,5.25-21.01-5.2-31.13l-2.81.71c1.25,2.83.68,1.68,2.18,4.49l1.09,2.01c-1.72,4.85-2.73,15.25-4.53,17.09-5.33-8.52,1.25-23.85-6.66-34.68Z"/>
  <path class="st8" d="M2559.15,2068.64c5.72,11.78,6.97,43.28-2.11,52.04-4.02-2.71-4-3.18-8.83-2.89-9.32,10.23.52,11.49-11.86,19.23-.3-15.71-.84-13.61-4.04-28.63,5.21-3.63,5.95-4.18,11.73-6.33l3.6,3.79c2.14-2.69,6.95-26.29,11.5-37.2Z"/>
  <path class="st8" d="M1576.64,2086.25l2.16,3.81c-1.93,10.38-3.35,22.19-9.18,30.43-2.46.07-4.78.06-7.2-.44.16,4.06.65,6.17-1.25,9.65-4.68-.18-5.34-.37-10.08.65-.59,2.93-1.1,5.77-1.62,8.71-5.41,2.46-5.24,1.01-12.5-1.15-8.9,3.85.31,4.59-5.93,11.24-10.59-1.98-7.04-10.47-10.51-12.21-5.17-2.59-12.82,1.62-21.51-4.79-3.64-6.35-2.96-8.21-2.76-16.13,1.62,5.36,1.8,5.89,4.36,10.76,5.01-3.87,4.82-8.32,7.08-16.06,6.52,8.11,6.04,13.84,12.3,21.71l3.91-3.2c1.01,6.13,1.22,12.92,5.22,16.88,4.44-4.46-.68-10.09,3.65-15.5,2.48,4.29,2.24,4.06,6.12,6.84,3.72-4.34,3.34-10.51,5.16-17.91l1.83,14.96c2.09-7.27,3.55-13.99,5.17-21.37,1.48,7.96.53,10.69,5.25,14.6l2.84-1.48c.86-4.62,1.53-7.69,2.76-12.21,3.29,2.43,3.2,2.91,7.05,2.89,4.05-5.76,6.26-22.84,7.68-30.68Z"/>
  <path class="st8" d="M2971.04,2157.37c15.71,11.88,45.93,35.53,55.76,52.6,5.31,9.2,5.49,17.31,11,25.89,10.69-1.57,13.73-27.37,30.32-20.37.29,6.93.99,3.7-2.7,9.86-3.02-1.75-6.09-4.83-8.76-7.25-6.92,5-10.01,18.66-12.8,27.7l-.16,1.43c-14.43-14.55-10.56-14.87-16.93-33.5-1.51-4.48-11.47-16.03-14.9-20.11-.34,8.83-.86,14.84-1.92,23.6-2.08-14.27-1.3-27.49-13.58-35.09l-3.15,1.71-2.26,11.71c-6.68-2.57,4.63-23.74-14.07-28.51-4.32,4.62-2.96,3.27-4.58,10.81-.88-6.14-.99-14.13-1.27-20.48Z"/>
  <path class="st8" d="M1932.89,2060.34c.48,14.72-1.33,35.6-8.33,48.5-2.95,1.02-3.6,1.19-6.6,1.43l-2.43.17c-1.13,7.25,0,6.3-3.72,11.2l-3.65-.86-1.38-13.23-4.12-3.32,4.31-4.26,2.11,1.36,1.3,14.39,1.8-.23c4.66-9.71.15-22.33,4.93-29.71l2.98,4.98c4.82-8.19,9.26-21.1,12.8-30.43Z"/>
  <path class="st8" d="M2463.45,2122.22c4.22,4.76,3.36,6.29,4.7,13.58,3.37-5.05,1.27-3.5,5.9-5.64,9.98,5.86,13.4,26.7,12.96,38.22l-1.62-.26-2.22-9.88c-3.25-1.2-5.27-1.95-8.65-2.74l-2.52-.58c-6.16-5.61-11.52-9.21-14.3-17.18l5.09,5.03c2.1-4.02.88-15.23.66-20.55Z"/>
  <path class="st8" d="M1201.98,2190.46c2.94,5.99,3.57,16.53,3.02,23.24-6.22,14.73-20.97,9.71-23.54,28.18l-3.41.77-1.22-1.81,2.05-1.94.13-4.64c.35-2.06,1.46-10.48,2.4-11.43l3.05.5c2.74-1.93,5.55-14.73,7.15-19.77l2.9-1.09c2.74,6.65,3.06,9.61,4.37,16.68,2.96-4.66,2.83-21.92,3.11-28.7Z"/>
  <path class="st8" d="M1602.78,2096.71c3.98.82,2.07.19,5.63,3.88,8.82-3.36,14.49-1.11,17.36,7.96l-1.97,2.9c-2.08,2.64-3.11,5.11-4.68,8.15-3.91,1.29-3.8,1.67-7.6.33-6-9.44-4.23-11.41-7.77-20.72l-.97-2.5Z"/>
  <path class="st8" d="M3384.07,2197.06c5.23,14.37.96,21.64,5.28,32.94l3.09-5.52,2.65-.35c.68,10.23,1.2,13.28,4.99,22.75-5.7-4.18-3.98-6.53-7.91-11.34-8.66,3.16-8.24,4.15-15.24-.67l-2.47,9.75c.29-7.56.05-8.81,2.52-15.69,1.56,3.23,1.35,3.1,3.98,5.32,2.34-6.27,2-26.92,3.09-37.2Z"/>
  <path class="st8" d="M1678.29,2041.57c8.8,10.69-.95,38.89,8.23,52.52l-2.55.32-3.42-9.15c-.91,3.84-.97,4.57-2.6,8.08-4.79-20.46-2.92-31.45.34-51.78Z"/>
  <path class="st8" d="M2422.04,2088.03c15.48,8.9,14.08,8.31,12.17,27.86-11.68-1.05-12.54-17.67-12.17-27.86Z"/>
  <path class="st8" d="M590.94,2300.47c.32,16.53,4.42,31.63-7.63,41.96-1.7-7.45,1.45-35.94,7.63-41.96Z"/>
  <path class="st8" d="M2936.64,2156.71c2.26,15.46,1.46,23.11-3.82,37.68-6.94-12.16-5.36-27.52,3.82-37.68Z"/>
  <path class="st8" d="M2283.97,2131.02l1.48,6.87c10.18,9.7,9.04,16.79,8.74,30.53-12.59-6.26-10.21-23.97-10.23-37.41Z"/>
  <path class="st8" d="M413.39,2380.82c10.06,17.73,11.73,6.34,8.78,30.3l-2.32.81-3.28-3.04c-2.1-10.75-2.48-17.05-3.17-28.06Z"/>
  <path class="st8" d="M846.18,2272.55l1.03-.34c-.23,13.83,1.44,22.02-6.76,30.73-1.48-.31-1.42-.83-2.9-2.37-1.05-13.33,1.71-18.12,8.62-28.02Z"/>
  <path class="st8" d="M706.06,2280.76c3.39,15.75,8.35,8.7,8.28,33.03-3.71-1.26-3.5-1.13-6.51-3.8-3.36-7.62-2.06-20.34-1.76-29.23Z"/>
  <path class="st8" d="M2184.5,2111.02c1.33,6.96,5.97,5.19,8.55,15.5-2.22,4.42-2.66,6.62-3.95,11.33.37.84.21.16-.12,2.78l-2.34-1.4c-3.03-10.82-2.39-16.92-2.14-28.21Z"/>
  <path class="st8" d="M349.76,2369.04c.98.47,4.22,1.14,5.41,1.43l2.61,5.75c-.41,7.2-.37,8.41-3.45,14.73-.79.62-1.59,1.25-2.38,1.87l-1.85,1.52c-3.35-7.26-1.13-15.98-.34-25.29Z"/>
  <path class="st8" d="M502.05,2386.05c8.77,5.68,11.54,16.86,5.35,25.75l1.39,1.66-1.41-1.77c-1.87-6.44-.52-5.08-4.73-8.35l.46,2.42c-3.74-7.28-1.9-9.94-1.06-19.71Z"/>
  <path class="st8" d="M891.97,2270.16c3.02,4.06,5.58,5.42,10.67,12.84,1.73,7.57,1.18,8.79-1.15,16.27l-2.23.25c-4.14-4.82-6.11-22.15-7.29-29.36Z"/>
  <path class="st8" d="M1006.17,2296.21l6.05,3.14c3.38,7.72,1.86,9.99,1.33,19.49-3.46-.31-2.64-.38-5.98-2.01-3.34-6.57-1.97-12.8-1.4-20.62Z"/>
  <path class="st8" d="M1334.66,2130.99c4.89,7.84,6.36,18.47,2.66,27.2l-3.6-2.4c-2.04-8.31-.21-16.1.94-24.81Z"/>
  <path class="st8" d="M3106.74,2185.8c4.5,2.78,5.75,3.56,6.84,8.77-1.74,3.02-2.5,4.42-3.87,7.71l-1.07,2.65-.29,1.17-1.69-.36c-1.82-9.14-1.35-10.98.08-19.94Z"/>
  <path class="st8" d="M755.19,2331.98c3.5,6.86,6.06,21.59.45,27.55l-4.23-1.14-2.37-2.75,1.26-1.48,1.63,4.32-.18-2.21c5.03-7.64,3.78-14.77,3.45-24.3Z"/>
  <path class="st8" d="M2417.01,2058.39c3.19,7.65,5.32,17.95,2.95,26.18l-1.98,1.25c-2.44-7.57-1.28-18.93-.97-27.43Z"/>
  <path class="st0" d="M0,0h3994.51v1132.39c-1.22-1.14-3.8-2.89-4.63-4.26-8.11-13.33,7.8-257.94-4.78-284.92-2.76-5.89-7.26-1.37-12.48-3.87-20.21-9.69-35.08-3.05-55.81-5.25-18.67-1.98-38.1-3.99-56.61-7.19-14.3-2.47-28.61-6.34-43.07-7.59-36.02-3.11-71.62-.86-107.59-.82-29.46.03-54.53-1.54-84.36.22-8.14.48-19.27-3.13-26.24-1.13-13.81,21.17-32.74,7.32-50.24,8.54-24.97,1.74-50.11,5.04-75.13,7.32-17.42,1.58-41.43-1.77-57.19,1.51l-.18,2.25c2.7.45,5.1.93,7.78,1.51-6.45.88-9,.09-13.78,3.93,15.45,3.39,17.45-5.71,26.99-5.73,2.65,2.48,8.17,6.8,11.75,7.14,23.33,2.19,96.74-1.36,109.07,24.17l-2.13,3.37c-19.82,9.77-387.96,10.06-435.94,7.89,3.51-1.93,7.1-3.16,11.05-3.21,115.88-1.19,231.82,1.31,347.65-2.76,14.64-.51,59.84-.84,71.28-6.64l-.26-3.15c-34.09-21.93-166.1-15.59-212.44-25.56-32.77-5.6-68.58-16.08-95.18-39.39-62.75-55.97-150.5-47.44-226.69-48.17-97.18-.93-195.95,18.35-293.24,4.45-8.09-1.62-22.96-3.91-30.19-7.91-41.95-23.22-64.78-38.58-112.82-44.07-24.61-2.81-171.97-5.04-173.76-34.72,20.24-33.81,161.16-35.89,163-65.38-11.36-16.76-60.14-24.06-80.15-27.92-53.31-10.29-115.09-32.47-168.13-35.84-112.64-6.86-230.24,22.78-338.76-22.54-40.5-16.91-68.68-49.86-16.5-78.48,97.67-53.58,207.37-37.18,311.89-80.66-23.49-.13-38.97-19.24-62.27-4.12l-3.37-7.38c-21.55.84-44.28.91-65.55.63-7.32-.09-37.2,3.4-40.03,2.57-42.08-12.44-67.72-9.42-108.77.3-7.58,1.79-28.97-9.9-37.64-8.79-27.39-5.43-65.37,5.4-90.18-3.06-16.86-5.75-16.69-1.11-30.39-2.77-44.32-5.38-85.99-3.44-130.02,3.57-20.34,3.24-38.32,2.24-57.86,12.69-10.02,4.29-31.17-.88-41.46,10.36,37.93,13.51,87.71,42.56,19.36,68.79-62.72,24.06-137.38,7.48-202.08,5.47-35.21-1.79-62.86-.06-96.57.25-65.44.61-116.76,33.31-177.85,42.79-80.42,12.47-165.24,8.9-246.36,22.54-19.8,3.33-39.08,6.19-58.25,13.23,148.82,27.52,299.89,57.17,446.93,93.97,12.13,3.03,44.16,14.99,43.41,31.27-20.46,34.5-134.66,39.8-130.53,68.67,32.93,31.04,139.62,30.72,176.52,40.31,43.43,2.91,87.04,6.35,130.54,7.52,76.13,2.04,420.72-1.82,461.7,48.33,1.86,2.28,2.53,4.66,3.3,7.53-3.21,27.43-59.23,30.45-79.96,37.83-30.51,4.23-62.55,13.21-93.55,18.33-111.07,18.35-223.17,29.12-335.52,31.51-81.77,2.55-330.07-8.95-390.8,40.1-2.62,5.6-2.36,2.74-.68,8.86,37.71,37.86,285.87,43.42,351.85,50.06,58.06,5.85,124.47,12,178.49,36.76,10.81,4.95,25.75,10.29,29.07,23.74-2.64,23.9-47.63,36.51-66.42,41.45-139.23,36.61-283.72,19.21-425.39,25.54-33.49,1.5-46.63,24.11-74.37,35.3-120.05,48.46-257.26,29.18-382.45,33.63-79.59,2.83-153.66,17.65-232.59,24.87-18.11,1.57-86.62,6.55-93.9,22.11,10.18,11.96,161.39,7.98,178.41,56.44-3.42,62.07-389.93,28.78-415.93,73.97,3.79,23.14,59.52,8.72,65.68,31.24-13.18,21.4-155.25,11.6-184.41,11.52-4.92-16.07,5.28-57.19-3.23-71.06l-3.57-.92V0Z"/>
  <path class="st4" d="M1355.58,327.29c-16.21-5.69-45.68-14.05-55.04-28.44-.57-4.56-1.26-5.86,1.46-9.75,15.08-21.56,163.05-34.69,193.94-37.46,72.96-6.52,145.53-6.63,218.28,3.12,47.3,6.34,92.71,18.25,140.62,19.37,46.16,1.08,89.79-5.91,134.82-16.48,36.7-8.61,73.68-19.65,111.43-20.39,40.19-.79,80.82,8.99,119.27,20.92,25.8,8,57.79,18.19,78.28,37.62,6.26,5.94,11.89,13.78,12.17,23.22.26,8.77-4.27,16.68-9.82,22.62-4.37,4.67-9.89,8.15-14.97,11.82l-9.34,4.07c-23.49-.13-38.97-19.24-62.27-4.12l-3.37-7.38c-21.55.84-44.28.91-65.55.63-7.32-.09-37.2,3.4-40.03,2.57-42.08-12.44-67.72-9.42-108.77.3-7.58,1.79-28.97-9.9-37.64-8.79-27.39-5.43-65.37,5.4-90.18-3.06-16.86-5.75-16.69-1.11-30.39-2.77-44.32-5.38-85.99-3.44-130.02,3.57-20.34,3.24-38.32,2.24-57.86,12.69-10.02,4.29-31.17-.88-41.46,10.36-84.72-23.39-163.14-7.18-253.54-34.23Z"/>
  <path class="st4" d="M3751.25,96.13c40.7-4.52,48.01,40.26,10.71,65.03-33.37-.25-36.56-13.96-35.6-46.7,10.25-9.49,12.92-12.02,24.89-18.32Z"/>
  <path class="st7" d="M1436.38,1313.62c46.34-37.92,98.64-90.47,151.19-116.34,23.49-11.57,73.09-5.14,96.68-22.09,108.31-77.78,210.72-165.5,319.27-242.47,6.44-4.56,15.07-5.89,22.57-5.33,74.93,2.41,85.56,21.73,137.1,72.43,47.66,46.89,114.56,133.96,172.95,157.27,41.2,18.71,92.69,38.71,129.51,66.14,19.37,14.43,37.35,42.46,57.4,56.99,22.07,16.4,44.05,23.97,65.2,42.07,32.12,27.5,61.04,61.97,96.15,84.64,67.49,43.57,143.76,41.79,215.02,80.25,50.58,27.29,90.89,56.99,138.51,89.51,50.97,34.81,104.44,67.51,158.48,96.14l1.33-2.25c56.2,26.49,112.48,61.05,173.93,70.46,11.68,1.79,55.39-25.23,66.37-25.37,11-.14,47.62,19.69,59.76,24.98,30.48,13.29,59.19,30.31,89.82,42.8,47.36,8.62,116.3-12.96,161.39,3.75l-2.11,5.75c48.48,22.52,96.17,47.02,144.12,70.85,34.64,17.23,69.83,33.25,103.5,52.77v198.6c-7.54-2.3-15.19-5.42-22.57-8.34-68.4-28.74-139.94-57.02-206.59-90.03-62.86-31.12-101.76-43.2-168.7-57.09l-136.97-27.14c-27.38-5.46-55.52-10.5-82-20.04-56.35-20.3-167.63-79.25-223.63-70.99-38.54,5.68-98.46,36.3-137.16,51.49-104.49,41-209.01,82.74-314.31,121.11-39.48,14.38-93.21,38.75-134.51,40.24-60.1,2.15-217.83-118.72-280.68-152.68-76.66-41.43-126.05,31.61-199.61,27.67-47.68-2.56-156.78-61.81-205.77-82.67-10.58-4.51-20.42-7.76-31.81-8.49-40-2.57-82.78,2.66-122.84,4.78-36.61,1.94-79.42-.11-114.89,8.91-26.99,6.86-53.89,18.8-80.25,28.39l-165.67,61.25c-33.2-13.37-141.17-53.9-173.42-52.06-17.37.99-170.87,78.8-201.37,92.61-76.77,34.76-154.48,68.6-232.28,100.47-12.98,5.31-29.94,13.39-43.89,12.31-27.99-2.16-127.59-53.1-158.36-67.05-39.67-17.98-80.14-34.43-119.23-53.85,40.69-19.13,81.24-44.15,122.92-62.64,33.13-14.7,54.97-34.83,93.83-34.45,32.87.32,58.21-7.69,86.81-23.51l-2.73-1.55c-52.97,27.03-76.6,18.69-130.47,27.81-2.23.38-2.09,3.44-10.17,3.51-21.88-11.92-3.9-41.61,2.99-58.48,4.41-10.79,12.13-31.28,22.75-34.81l1.98,6.61c5.26-2.74,9.82-43.46,10.11-50.98.14-3.65,6.99-15.22,9.17-19.07l-2.47-9.19,1.77-.97c10.9,3.7,24.06,2.69,35.2,5.06,42.12,8.98,78.42,1.38,116.95-17.87,10.59-5.29,24.23-9.29,32.93-18.67,124.02-59.59,265.22-143.26,380.04-221.05,24.08-15.77,51.38-30.3,76.24-45.93,23.99-7.62,129.87-86.22,150.52-104.19Z"/>
  <path class="st3" d="M1436.38,1313.62c46.34-37.92,98.64-90.47,151.19-116.34,23.49-11.57,73.09-5.14,96.68-22.09,108.31-77.78,210.72-165.5,319.27-242.47,6.44-4.56,15.07-5.89,22.57-5.33-6.7,12.1-18.45,51.19-23.5,66.17-10.03,29.75-19.07,53.86-32.38,82.14,10.47,5.12,23.58,12.02,34.1,16.3-42.48,21.31-104.88,58.76-135.58,97.02-50.31,62.71-81.14,73.27-146.03,111.46l-206.62,120.71c55.65-18.85,110.77-40.08,166.9-56.79,36.81-10.96,81.86-9.52,117.63-22.78,77.44-28.7,153.03-67.73,231.64-92.9-56.82,49.05-89.74,98.29-137.53,154.73-20.09,23.72-85.76,68.03-112.89,87.69,90.79-31.24,182.36-56.23,273.88-84.37,11.6-3.57,24.18-7.66,35.45-12.23,39.15,29.36,84.87,59.81,122.27,89.13-23.26,4.52-51.4,8.91-75.03,10.49-36.05,31.25-70.51,74.15-106.07,101.96-25.25,19.74-74.74,35.64-101.37,58.07-21.23,17.88-71.32,72.55-95.32,81.15-41.89,15-114.19,11.7-159.83,26.59-34.04,11.11-64.88,24.94-97.7,38.01l-176.44,69.34c-33.27-12.51-100.48-41.44-131.42-45.6-47.59-6.39-132.01,7.37-178.93,1.79-22.44-2.67-106.42-40.3-130.56-50.95-67,49.16-68.17,50.48-148.72,45.59-6.3-.38-57.84,27.63-70.48,33.27l-2.73-1.55c-52.97,27.03-76.6,18.69-130.47,27.81-2.23.38-2.09,3.44-10.17,3.51-21.88-11.92-3.9-41.61,2.99-58.48,4.41-10.79,12.13-31.28,22.75-34.81l1.98,6.61c5.26-2.74,9.82-43.46,10.11-50.98.14-3.65,6.99-15.22,9.17-19.07l-2.47-9.19,1.77-.97c10.9,3.7,24.06,2.69,35.2,5.06,42.12,8.98,78.42,1.38,116.95-17.87,10.59-5.29,24.23-9.29,32.93-18.67,124.02-59.59,265.22-143.26,380.04-221.05,24.08-15.77,51.38-30.3,76.24-45.93,23.99-7.62,129.87-86.22,150.52-104.19Z"/>
  <path class="st1" d="M3196.39,1672.85l1.33-2.25c56.2,26.49,112.48,61.05,173.93,70.46,11.68,1.79,55.39-25.23,66.37-25.37,11-.14,47.62,19.69,59.76,24.98,30.48,13.29,59.19,30.31,89.82,42.8,47.36,8.62,116.3-12.96,161.39,3.75l-2.11,5.75-15.79-6.85c-24.45,10.58-58.18,21.72-83.71,30.96-68.63-32.84-140.2-69.92-209.58-99.43-43.09,22.13-58.41,34.25-106.86,17.36-47.41-16.51-90.19-37.7-134.55-62.17Z"/>
  <path class="st10" d="M3119.93,879.48c47.98,2.17,416.12,1.88,435.94-7.89l2.13-3.37c-12.33-25.53-85.74-21.98-109.07-24.17-3.59-.34-9.1-4.66-11.75-7.14-9.54.01-11.55,9.12-26.99,5.73,4.78-3.83,7.33-3.04,13.78-3.93-2.68-.58-5.07-1.06-7.78-1.51l.18-2.25c15.76-3.28,39.76.08,57.19-1.51,25.02-2.27,50.17-5.58,75.13-7.32,17.5-1.21,36.43,12.63,50.24-8.54,6.97-2,18.1,1.61,26.24,1.13,29.83-1.77,54.9-.19,84.36-.22,35.97-.04,71.57-2.29,107.59.82,14.46,1.25,28.76,5.12,43.07,7.59,18.52,3.2,37.94,5.21,56.61,7.19,20.73,2.2,35.6-4.44,55.81,5.25,5.23,2.5,9.73-2.02,12.48,3.87,12.59,26.98-3.33,271.59,4.78,284.92.83,1.37,3.41,3.12,4.63,4.26v784.18c-33.68-19.52-68.86-35.53-103.5-52.77-47.95-23.84-95.65-48.33-144.12-70.85l2.11-5.75c-45.09-16.71-114.04,4.87-161.39-3.75-30.64-12.49-59.35-29.51-89.82-42.8-12.14-5.29-48.76-25.12-59.76-24.98-10.97.14-54.69,27.16-66.37,25.37-61.45-9.41-117.73-43.97-173.93-70.46l-1.33,2.25c-54.04-28.63-107.51-61.34-158.48-96.14-47.62-32.53-87.93-62.22-138.51-89.51-71.26-38.46-147.53-36.68-215.02-80.25-35.11-22.67-64.03-57.14-96.15-84.64-21.15-18.1-43.12-25.67-65.2-42.07-20.05-14.53-38.02-42.56-57.4-56.99-36.82-27.43-88.31-47.43-129.51-66.14,12.57-10.86,172.77-4.2,193.07,2.71,108.89,37.08,209.66,11.92,320.68,8.68,52.87-6.54,134.06,6.07,183.47-7.9,82.72-23.39,153.36-39.09,240.14-36.03,66.71,2.35,146.78,33.79,212.34,34.33,39.89.33,269.26-3.19,287.76-24.74-.65-5.5-.21-3.6-4.86-8.32-29.91,1.54-60.52-14.75-88.24-19.82l-2.03-.36-1.46-2.93c13.44-24.1,186.38-37.69,219.26-47.11,11.6-3.32,24.37-5.94,22.96-21.39-25.77-46.85-448.78-58.47-521.91-44.46-89.28,10.91-177.46,30.5-267.78,23.7-51.73-3.9-80.8-2.93-123.68-38.02-10.97-8.98-34.72-12.79-46.65-18.22-22.47-10.23-120.3-14.68-136.09-23.02,7.54-33.78,180.43-39.94,193.43-50.42,10.06.92,98.61-1.41,103.4-4.28Z"/>
  <path class="st5" d="M3988.11,1782.79c2.03-26.6-1.72-60.45,1.07-87.73.42-4.26,1.38-3.73,5.33-6.71v228.23c-33.68-19.52-68.86-35.53-103.5-52.77-47.95-23.84-95.65-48.33-144.12-70.85l2.11-5.75,1.98-1.58c9.99,6.51,51.65.74,65.95,3.32,54.85,9.86,116.71-7.57,171.2-6.16Z"/>
  <path class="st6" d="M0,1460.77c107.53,9.05,213.13,37.31,319.86,34.95,33.04-.73,64.98-14.44,96.35-23.49,27.17-7.84,70.8-16.29,98.89-14.46,48.43,3.15,102.75,15.23,150.95,23.78,81.37,14.43,157.34,25.51,240.12,24.18,34.22-.55,70.76-.09,103.91-13.4,13.91-5.58,26.25-18.26,37.5-28.8l1.75-1.64c53.88,3.41,106.35,4.4,160.29,1.85-114.83,77.8-256.02,161.46-380.04,221.05-8.7,9.38-22.33,13.38-32.93,18.67-38.53,19.25-74.82,26.85-116.95,17.87-11.15-2.38-24.31-1.37-35.2-5.06l-1.77.97,2.47,9.19c-2.18,3.85-9.03,15.42-9.17,19.07-.29,7.52-4.85,48.24-10.11,50.98l-1.98-6.61c-10.62,3.53-18.34,24.01-22.75,34.81-6.9,16.87-24.87,46.56-2.99,58.48,8.07-.06,7.93-3.13,10.17-3.51,53.87-9.12,77.51-.78,130.47-27.81l2.73,1.55c-28.59,15.81-53.93,23.83-86.81,23.51-38.86-.38-60.7,19.75-93.83,34.45-41.68,18.49-82.24,43.51-122.92,62.64-38.64-15.85-81.55-35.76-123.04-35.39-26.28.23-63.64-3.73-87.3,9.64-76.69,43.36-151.2,91.36-227.66,135.31v-622.77Z"/>
  <path class="st10" d="M531.51,1679.81c64.45,17.51,151.48,52.36,219.85,37.58,11.21-2.42,61.03-26.44,78.2-32.6-8.7,9.38-22.33,13.38-32.93,18.67-38.53,19.25-74.82,26.85-116.95,17.87-11.15-2.38-24.31-1.37-35.2-5.06l-1.77.97,2.47,9.19c-2.18,3.85-9.03,15.42-9.17,19.07-.29,7.52-4.85,48.24-10.11,50.98l-1.98-6.61c-10.62,3.53-18.34,24.01-22.75,34.81-6.9,16.87-24.87,46.56-2.99,58.48,8.07-.06,7.93-3.13,10.17-3.51,53.87-9.12,77.51-.78,130.47-27.81l2.73,1.55c-28.59,15.81-53.93,23.83-86.81,23.51-38.86-.38-60.7,19.75-93.83,34.45-41.68,18.49-82.24,43.51-122.92,62.64-38.64-15.85-81.55-35.76-123.04-35.39-26.28.23-63.64-3.73-87.3,9.64-76.69,43.36-151.2,91.36-227.66,135.31v-133.98c97.34-42.67,202.84-105.3,300.63-151.52l230.89-118.22Z"/>
  <path class="st10" d="M1285.85,1417.81c-4.06-2.99-8.09-3.69-12.85-4.12-37.08-3.35-228.84-12.42-243.52-47.56.48-3.93.87-7.45,4.94-9.79,17.93-10.34,55.42-14.79,75.83-18.6,84.59-15.77,164.62-33.72,251.17-30.63,27.99,1,46.78-.14,74.96,6.51-20.66,17.97-126.53,96.57-150.52,104.19Z"/>
</svg>