<?xml version="1.0" encoding="utf-8" ?><svg xmlns="http://www.w3.org/2000/svg" xmlns:xlink="http://www.w3.org/1999/xlink" width="3994" height="2663" viewBox="0 0 3994 2663"><defs><linearGradient id="gradient_0" gradientUnits="userSpaceOnUse" x1="756.82568" y1="509.90646" x2="737.75763" y2="113.15258"><stop offset="0" stop-color="#FF7E49"/><stop offset="1" stop-color="#A71FB8"/></linearGradient></defs><path fill="url(#gradient_0)" transform="scale(2.60059 2.60059)" d="M0 0L1536 0L1536 122.639L1536 398.122L1536 593.582L1536 673.822L1536 743.644L1536 1024L0 1024L0 732.52L0 685.415L0 625.218L0 513.569L0 472.329L0 280.361L0 116.953L0 0Z"/><defs><linearGradient id="gradient_1" gradientUnits="userSpaceOnUse" x1="771.6604" y1="1040.4277" x2="761.58832" y2="645.54291"><stop offset="0" stop-color="#00010D"/><stop offset="1" stop-color="#271537"/></linearGradient></defs><path fill="url(#gradient_1)" transform="scale(2.60059 2.60059)" d="M525.478 682.6L589.183 661.067C599.318 657.694 609.664 653.496 620.042 651.085C633.682 647.916 650.142 648.637 664.22 647.954C679.624 647.207 696.074 645.37 711.456 646.273C715.838 646.53 719.621 647.674 723.689 649.258C742.528 656.591 784.479 677.423 802.814 678.322C831.097 679.709 850.09 654.029 879.568 668.594C903.736 680.536 964.384 723.031 987.496 722.274C1003.38 721.753 1024.04 713.185 1039.22 708.128C1079.71 694.638 1119.9 679.96 1160.08 665.547C1174.96 660.207 1198 649.443 1212.82 647.445C1234.35 644.541 1277.14 665.268 1298.81 672.404C1308.99 675.755 1319.81 677.527 1330.34 679.448L1383.01 688.991C1408.75 693.874 1423.71 698.119 1447.88 709.061C1473.51 720.667 1501.02 730.61 1527.32 740.713C1530.16 741.74 1533.1 742.835 1536 743.644L1536 1024L0 1024L0 732.52C29.4011 717.07 58.0529 700.194 87.5422 684.949C96.6401 680.246 111.005 681.639 121.111 681.559C137.064 681.431 153.564 688.429 168.423 694.003C183.454 700.831 199.013 706.615 214.269 712.935C226.102 717.837 264.401 735.748 275.164 736.507C280.526 736.885 287.05 734.046 292.04 732.178C321.958 720.973 351.839 709.075 381.36 696.855C393.087 692 452.114 664.645 458.792 664.297C471.194 663.65 512.713 677.899 525.478 682.6Z"/><path fill="#140B26" transform="scale(2.60059 2.60059)" d="M995.763 744.59C999.934 748.534 1007.96 755.755 1010.86 760.353C1011.1 762.474 1010.98 762.644 1010.41 764.775L1010.25 765.347C1010.91 767.111 1011.55 767.48 1012.98 768.554L1013.04 770.14L1012.19 770.325L1010.28 768.699C1010.16 768.388 1010.29 768.608 1009.58 767.968L1008.58 767.751C1002.72 757.697 999.654 766.052 997.52 753.605L993.918 752.946L993.945 751.78L996.757 752.453L997.769 751.742C997.839 749.296 996.666 746.945 995.763 744.59Z"/><path fill="#140B26" transform="scale(2.60059 2.60059)" d="M1076.01 760.235C1076.81 760.282 1078.24 760.944 1079.08 761.27C1083.74 767.338 1091.6 771.173 1093.13 777.216C1093.65 779.275 1094.28 780.68 1095.01 782.661L1095.99 783.054L1097.64 780.165L1098.78 779.948C1100.41 782.069 1100.74 783.978 1101.51 786.549L1100.94 786.78C1099.97 784.976 1099.34 783.14 1097.79 782.148C1097.12 784.213 1097.74 783.513 1096.27 784.594L1094.05 783.555C1093.22 780.629 1092.33 776.494 1090.62 774.164C1089.44 775.625 1089.5 779.851 1089.36 781.991L1088.28 781.624C1086.51 779.338 1085.92 778.535 1085.23 775.724L1082.13 774.827C1079.61 771.076 1084.15 767.441 1080.13 763.884L1079.05 764.135C1079.53 765.129 1079.31 764.725 1079.89 765.712L1080.31 766.418C1079.65 768.124 1079.26 771.778 1078.57 772.428C1076.52 769.432 1079.05 764.042 1076.01 760.235Z"/><path fill="#140B26" transform="scale(2.60059 2.60059)" d="M984.065 727.281C986.263 731.423 986.747 742.498 983.255 745.576C981.71 744.622 981.717 744.459 979.859 744.561C976.274 748.158 980.059 748.599 975.299 751.321C975.183 745.796 974.977 746.537 973.747 741.254C975.752 739.978 976.034 739.783 978.259 739.028L979.642 740.36C980.463 739.414 982.316 731.116 984.065 727.281Z"/><path fill="#140B26" transform="scale(2.60059 2.60059)" d="M606.262 733.475L607.093 734.814C606.35 738.462 605.806 742.615 603.562 745.514C602.615 745.539 601.724 745.534 600.792 745.359C600.853 746.788 601.043 747.529 600.313 748.751C598.513 748.689 598.258 748.622 596.436 748.981C596.209 750.01 596.012 751.009 595.814 752.044C593.733 752.91 593.798 752.398 591.006 751.638C587.585 752.991 591.127 753.252 588.724 755.589C584.65 754.894 586.017 751.908 584.683 751.297C582.696 750.386 579.753 751.866 576.412 749.614C575.013 747.383 575.273 746.728 575.351 743.944C575.974 745.828 576.043 746.015 577.027 747.728C578.955 746.367 578.879 744.802 579.749 742.08C582.255 744.931 582.073 746.946 584.478 749.712L585.982 748.588C586.372 750.743 586.451 753.13 587.99 754.521C589.698 752.953 587.729 750.974 589.392 749.073C590.347 750.582 590.254 750.501 591.744 751.479C593.176 749.954 593.03 747.783 593.73 745.184L594.435 750.445C595.238 747.888 595.799 745.525 596.424 742.932C596.994 745.729 596.628 746.692 598.443 748.064L599.534 747.542C599.865 745.917 600.121 744.837 600.595 743.248C601.86 744.102 601.825 744.271 603.307 744.263C604.866 742.239 605.715 736.234 606.262 733.475Z"/><path fill="#140B26" transform="scale(2.60059 2.60059)" d="M1142.45 758.478C1148.49 762.653 1160.11 770.969 1163.89 776.972C1165.93 780.205 1166 783.057 1168.12 786.075C1172.23 785.522 1173.4 776.451 1179.78 778.913C1179.89 781.349 1180.16 780.214 1178.74 782.381C1177.58 781.766 1176.4 780.683 1175.37 779.831C1172.71 781.589 1171.52 786.392 1170.45 789.571L1170.39 790.073C1164.84 784.959 1166.33 784.846 1163.88 778.295C1163.3 776.721 1159.47 772.659 1158.15 771.224C1158.02 774.33 1157.82 776.44 1157.41 779.522C1156.61 774.506 1156.91 769.858 1152.19 767.185L1150.98 767.785L1150.11 771.903C1147.54 771 1151.89 763.557 1144.7 761.881C1143.04 763.506 1143.56 763.031 1142.94 765.68C1142.6 763.52 1142.56 760.713 1142.45 758.478Z"/><path fill="#140B26" transform="scale(2.60059 2.60059)" d="M743.25 724.365C743.436 729.541 742.739 736.882 740.045 741.416C738.91 741.774 738.66 741.834 737.509 741.918L736.576 741.979C736.141 744.529 736.579 744.195 735.147 745.918L733.742 745.616L733.213 740.965L731.627 739.799L733.286 738.302L734.097 738.78L734.596 743.838L735.29 743.757C737.081 740.342 735.347 735.908 737.184 733.313L738.329 735.063C740.183 732.185 741.89 727.644 743.25 724.365Z"/><path fill="#140B26" transform="scale(2.60059 2.60059)" d="M947.264 746.12C948.888 747.793 948.555 748.33 949.07 750.895C950.365 749.121 949.559 749.665 951.337 748.911C955.173 750.971 956.49 758.298 956.32 762.349L955.699 762.256L954.845 758.784C953.594 758.361 952.817 758.098 951.52 757.819L950.551 757.616C948.184 755.645 946.123 754.377 945.051 751.575L947.009 753.345C947.818 751.933 947.349 747.99 947.264 746.12Z"/><path fill="#140B26" transform="scale(2.60059 2.60059)" d="M462.196 770.11C463.326 772.215 463.57 775.921 463.356 778.282C460.966 783.462 455.291 781.697 454.303 788.189L452.991 788.459L452.522 787.823L453.312 787.141L453.361 785.508C453.496 784.784 453.922 781.823 454.284 781.491L455.456 781.668C456.511 780.989 457.59 776.49 458.206 774.717L459.32 774.335C460.375 776.672 460.498 777.715 460.999 780.201C462.139 778.562 462.087 772.496 462.196 770.11Z"/><path fill="#140B26" transform="scale(2.60059 2.60059)" d="M616.313 737.153C617.844 737.441 617.108 737.22 618.478 738.518C621.87 737.337 624.051 738.129 625.154 741.317L624.397 742.336C623.599 743.265 623.202 744.131 622.596 745.202C621.094 745.656 621.134 745.789 619.673 745.317C617.366 741.998 618.046 741.306 616.687 738.033L616.313 737.153Z"/><path fill="#140B26" transform="scale(2.60059 2.60059)" d="M1301.27 772.431C1303.28 777.484 1301.64 780.038 1303.3 784.012L1304.49 782.073L1305.51 781.95C1305.77 785.547 1305.97 786.619 1307.43 789.949C1305.24 788.479 1305.9 787.654 1304.39 785.963C1301.06 787.075 1301.22 787.423 1298.53 785.728L1297.58 789.156C1297.69 786.497 1297.6 786.06 1298.55 783.639C1299.15 784.773 1299.07 784.73 1300.08 785.508C1300.98 783.305 1300.85 776.044 1301.27 772.431Z"/><path fill="#140B26" transform="scale(2.60059 2.60059)" d="M645.348 717.764C648.732 721.521 644.982 731.435 648.514 736.23L647.535 736.344L646.218 733.128C645.87 734.479 645.846 734.736 645.217 735.967C643.376 728.773 644.095 724.91 645.348 717.764Z"/><path fill="#140B26" transform="scale(2.60059 2.60059)" d="M931.342 734.101C937.296 737.231 936.758 737.023 936.02 743.897C931.528 743.528 931.199 737.684 931.342 734.101Z"/><path fill="#140B26" transform="scale(2.60059 2.60059)" d="M227.234 808.79C227.358 814.6 228.932 819.909 224.3 823.541C223.646 820.923 224.857 810.904 227.234 808.79Z"/><path fill="#140B26" transform="scale(2.60059 2.60059)" d="M1129.22 758.246C1130.09 763.68 1129.78 766.37 1127.75 771.492C1125.08 767.216 1125.69 761.816 1129.22 758.246Z"/><path fill="#140B26" transform="scale(2.60059 2.60059)" d="M878.25 749.214L878.82 751.63C882.734 755.041 882.296 757.534 882.182 762.365C877.342 760.165 878.257 753.937 878.25 749.214Z"/><path fill="#140B26" transform="scale(2.60059 2.60059)" d="M158.961 837.039C162.829 843.271 163.47 839.269 162.336 847.69L161.442 847.973L160.181 846.903C159.372 843.123 159.226 840.91 158.961 837.039Z"/><path fill="#140B26" transform="scale(2.60059 2.60059)" d="M325.38 798.974L325.777 798.853C325.687 803.717 326.33 806.593 323.178 809.658C322.61 809.548 322.633 809.366 322.064 808.824C321.66 804.139 322.723 802.453 325.38 798.974Z"/><path fill="#140B26" transform="scale(2.60059 2.60059)" d="M271.5 801.86C272.805 807.399 274.71 804.917 274.683 813.473C273.257 813.029 273.338 813.077 272.178 812.137C270.885 809.459 271.384 804.985 271.5 801.86Z"/><path fill="#140B26" transform="scale(2.60059 2.60059)" d="M840 742.184C840.513 744.63 842.297 744.008 843.288 747.632C842.436 749.186 842.264 749.959 841.768 751.617C841.91 751.912 841.85 751.673 841.72 752.594L840.822 752.102C839.655 748.297 839.904 746.152 840 742.184Z"/><path fill="#140B26" transform="scale(2.60059 2.60059)" d="M134.491 832.895C134.869 833.061 136.112 833.297 136.573 833.398L137.575 835.42C137.417 837.952 137.431 838.376 136.247 840.597C135.942 840.816 135.636 841.035 135.331 841.254L134.62 841.787C133.331 839.236 134.186 836.17 134.491 832.895Z"/><path fill="#140B26" transform="scale(2.60059 2.60059)" d="M193.054 838.876C196.426 840.873 197.491 844.802 195.111 847.928L195.646 848.51L195.103 847.888C194.383 845.623 194.903 846.103 193.286 844.954L193.462 845.806C192.025 843.246 192.731 842.312 193.054 838.876Z"/><path fill="#140B26" transform="scale(2.60059 2.60059)" d="M342.986 798.132C344.146 799.559 345.133 800.036 347.088 802.647C347.753 805.31 347.541 805.736 346.646 808.366L345.788 808.455C344.197 806.761 343.439 800.667 342.986 798.132Z"/><path fill="#140B26" transform="scale(2.60059 2.60059)" d="M386.902 807.291L389.228 808.395C390.526 811.108 389.944 811.908 389.741 815.247C388.411 815.138 388.727 815.114 387.441 814.54C386.156 812.23 386.685 810.04 386.902 807.291Z"/><path fill="#140B26" transform="scale(2.60059 2.60059)" d="M513.216 749.202C515.095 751.958 515.662 755.697 514.24 758.765L512.854 757.923C512.068 755.003 512.772 752.263 513.216 749.202Z"/><path fill="#140B26" transform="scale(2.60059 2.60059)" d="M1194.63 768.473C1196.36 769.449 1196.84 769.726 1197.26 771.557C1196.59 772.619 1196.3 773.11 1195.77 774.267L1195.36 775.199L1195.25 775.611L1194.6 775.483C1193.9 772.269 1194.08 771.623 1194.63 768.473Z"/><path fill="#140B26" transform="scale(2.60059 2.60059)" d="M290.39 819.866C291.737 822.277 292.719 827.457 290.562 829.552L288.935 829.152L288.024 828.186L288.509 827.666L289.136 829.185L289.065 828.409C290.999 825.724 290.519 823.217 290.39 819.866Z"/><path fill="#140B26" transform="scale(2.60059 2.60059)" d="M929.409 723.678C930.634 726.367 931.455 729.989 930.543 732.881L929.783 733.322C928.846 730.66 929.29 726.667 929.409 723.678Z"/><defs><linearGradient id="gradient_2" gradientUnits="userSpaceOnUse" x1="766.43378" y1="500.96014" x2="768.41571" y2="-3.0171554"><stop offset="0" stop-color="#FF5F66"/><stop offset="1" stop-color="#400D8D"/></linearGradient></defs><path fill="url(#gradient_2)" transform="scale(2.60059 2.60059)" d="M0 0L1536 0L1536 122.639L1536 398.122C1535.53 397.722 1534.54 397.107 1534.22 396.624C1531.1 391.939 1537.22 305.938 1532.38 296.454C1531.32 294.382 1529.59 295.972 1527.58 295.092C1519.81 291.684 1514.09 294.018 1506.12 293.245C1498.94 292.548 1491.47 291.843 1484.35 290.718C1478.85 289.848 1473.35 288.488 1467.79 288.049C1453.94 286.955 1440.25 287.745 1426.42 287.759C1415.09 287.771 1405.45 287.216 1393.98 287.838C1390.85 288.008 1386.57 286.739 1383.89 287.442C1378.58 294.884 1371.3 290.016 1364.57 290.443C1354.97 291.053 1345.3 292.216 1335.68 293.015C1328.98 293.572 1319.75 292.392 1313.69 293.545L1313.62 294.337C1314.66 294.495 1315.58 294.664 1316.61 294.868C1314.13 295.178 1313.15 294.901 1311.31 296.248C1317.25 297.44 1318.02 294.24 1321.69 294.235C1322.71 295.106 1324.83 296.627 1326.21 296.745C1335.18 297.516 1363.41 296.266 1368.15 305.242L1367.33 306.428C1359.71 309.863 1218.15 309.966 1199.7 309.203C1201.05 308.525 1202.43 308.091 1203.95 308.076C1248.51 307.656 1293.09 308.537 1337.63 307.105C1343.26 306.924 1360.64 306.809 1365.04 304.769L1364.94 303.663C1351.83 295.954 1301.07 298.183 1283.25 294.678C1270.65 292.71 1256.88 289.025 1246.65 280.83C1222.52 261.152 1188.78 264.151 1159.48 263.896C1122.11 263.57 1084.13 270.347 1046.72 265.462C1043.61 264.891 1037.89 264.089 1035.11 262.681C1018.98 254.518 1010.2 249.117 991.727 247.187C982.264 246.198 925.598 245.415 924.912 234.979C932.696 223.093 986.883 222.361 987.589 211.993C983.219 206.1 964.464 203.534 956.77 202.177C936.269 198.561 912.513 190.761 892.118 189.575C848.806 187.164 803.586 197.585 761.855 181.65C746.283 175.704 735.446 164.122 755.511 154.059C793.068 135.223 835.251 140.987 875.442 125.701C866.41 125.654 860.456 118.935 851.496 124.254L850.202 121.659C841.914 121.956 833.176 121.978 824.995 121.88C822.18 121.847 810.689 123.075 809.603 122.782C793.423 118.408 783.563 119.471 767.779 122.888C764.865 123.519 756.64 119.406 753.304 119.796C742.773 117.886 728.166 121.696 718.626 118.72C712.143 116.699 712.209 118.33 706.939 117.745C689.898 115.852 673.872 116.536 656.944 119.001C649.123 120.14 642.21 119.789 634.695 123.461C630.842 124.97 622.711 123.152 618.754 127.103C633.341 131.853 652.48 142.067 626.198 151.288C602.08 159.748 573.371 153.919 548.494 153.211C534.956 152.581 524.322 153.19 511.36 153.3C486.198 153.514 466.464 165.012 442.97 168.343C412.045 172.726 379.43 171.472 348.238 176.267C340.625 177.438 333.21 178.444 325.841 180.917C383.067 190.592 441.157 201.016 497.699 213.953C502.362 215.02 514.678 219.222 514.393 224.947C506.525 237.075 462.613 238.939 464.2 249.088C476.861 260 517.888 259.888 532.075 263.26C548.775 264.283 565.545 265.493 582.27 265.903C611.544 266.62 744.049 265.264 759.808 282.895C760.524 283.696 760.78 284.533 761.077 285.542C759.842 295.187 738.303 296.249 730.332 298.842C718.6 300.328 706.278 303.486 694.36 305.286C651.65 311.737 608.546 315.525 565.343 316.364C533.902 317.261 438.422 313.219 415.069 330.461C414.062 332.429 414.162 331.424 414.808 333.577C429.307 346.886 524.734 348.841 550.106 351.177C572.433 353.233 597.97 355.396 618.742 364.102C622.897 365.843 628.645 367.718 629.92 372.449C628.906 380.851 611.603 385.284 604.381 387.023C550.843 399.894 495.282 393.778 440.807 396.002C427.928 396.528 422.876 404.478 412.21 408.414C366.048 425.451 313.285 418.672 265.147 420.236C234.541 421.231 206.062 426.443 175.708 428.981C168.744 429.532 142.402 431.285 139.601 436.753C143.514 440.958 201.66 439.557 208.206 456.595C206.89 478.416 58.2661 466.715 48.2687 482.601C49.7267 490.737 71.1544 485.667 73.5258 493.585C68.4574 501.108 13.826 497.662 2.61306 497.635C0.721217 491.986 4.64354 477.528 1.37171 472.653L0 472.329L0 280.361L0 116.953L0 0Z"/><path fill="#961DAB" transform="scale(2.60059 2.60059)" d="M521.26 115.068C515.028 113.067 503.696 110.127 500.096 105.069C499.877 103.465 499.611 103.008 500.656 101.642C506.453 94.0607 563.354 89.4443 575.231 88.4733C603.286 86.1798 631.19 86.1419 659.165 89.5686C677.352 91.7965 694.815 95.986 713.236 96.3785C730.984 96.7567 747.763 94.299 765.077 90.585C779.19 87.5575 793.41 83.6781 807.925 83.4162C823.379 83.1372 839.003 86.578 853.787 90.7709C863.709 93.5849 876.007 97.1665 883.889 103.998C886.297 106.086 888.461 108.843 888.567 112.162C888.666 115.246 886.925 118.027 884.791 120.114C883.111 121.756 880.988 122.981 879.035 124.271L875.442 125.701C866.41 125.654 860.456 118.935 851.496 124.254L850.202 121.659C841.914 121.956 833.176 121.978 824.995 121.88C822.18 121.847 810.689 123.075 809.603 122.782C793.423 118.408 783.563 119.471 767.779 122.888C764.865 123.519 756.64 119.406 753.304 119.796C742.773 117.886 728.166 121.696 718.626 118.72C712.143 116.699 712.209 118.33 706.939 117.745C689.898 115.852 673.872 116.536 656.944 119.001C649.123 120.14 642.21 119.789 634.695 123.461C630.842 124.97 622.711 123.152 618.754 127.103C586.176 118.878 556.021 124.577 521.26 115.068Z"/><path fill="#961DAB" transform="scale(2.60059 2.60059)" d="M1442.46 33.7966C1458.11 32.2063 1460.92 47.9503 1446.58 56.6583C1433.75 56.571 1432.52 51.7514 1432.89 40.239C1436.83 36.9041 1437.86 36.013 1442.46 33.7966Z"/><defs><linearGradient id="gradient_3" gradientUnits="userSpaceOnUse" x1="1123.4357" y1="1046.7573" x2="612.87683" y2="363.79703"><stop offset="0" stop-color="#2C1A48"/><stop offset="1" stop-color="#5C254B"/></linearGradient></defs><path fill="url(#gradient_3)" transform="scale(2.60059 2.60059)" d="M552.327 461.836C570.145 448.506 590.258 430.029 610.462 420.932C619.496 416.864 638.566 419.125 647.64 413.166C689.287 385.82 728.666 354.979 770.409 327.921C772.886 326.317 776.204 325.849 779.088 326.048C807.899 326.895 811.988 333.689 831.806 351.514C850.134 367.999 875.856 398.612 898.309 406.805C914.151 413.384 933.95 420.415 948.108 430.058C955.558 435.132 962.469 444.987 970.178 450.096C978.666 455.861 987.117 458.524 995.248 464.887C1007.6 474.556 1018.72 486.675 1032.22 494.645C1058.17 509.962 1087.5 509.337 1114.9 522.859C1134.35 532.454 1149.85 542.894 1168.16 554.33C1187.76 566.567 1208.32 578.064 1229.1 588.131L1229.61 587.339C1251.22 596.653 1272.86 608.803 1296.49 612.112C1300.98 612.74 1317.79 603.242 1322.01 603.192C1326.24 603.142 1340.32 610.114 1344.99 611.973C1356.71 616.647 1367.75 622.629 1379.53 627.021C1397.74 630.051 1424.25 622.463 1441.59 628.339L1440.78 630.361C1459.42 638.28 1477.76 646.891 1496.2 655.271C1509.52 661.329 1523.05 666.961 1536 673.822L1536 743.644C1533.1 742.835 1530.16 741.74 1527.32 740.713C1501.02 730.61 1473.51 720.667 1447.88 709.061C1423.71 698.119 1408.75 693.874 1383.01 688.991L1330.34 679.448C1319.81 677.527 1308.99 675.755 1298.81 672.404C1277.14 665.268 1234.35 644.541 1212.82 647.445C1198 649.443 1174.96 660.207 1160.08 665.547C1119.9 679.96 1079.71 694.638 1039.22 708.128C1024.04 713.185 1003.38 721.753 987.496 722.274C964.384 723.031 903.736 680.536 879.568 668.594C850.09 654.029 831.097 679.709 802.814 678.322C784.479 677.423 742.528 656.591 723.689 649.258C719.621 647.674 715.838 646.53 711.456 646.273C696.074 645.37 679.624 647.207 664.22 647.954C650.142 648.637 633.682 647.916 620.042 651.085C609.664 653.496 599.318 657.694 589.183 661.067L525.478 682.6C512.713 677.899 471.194 663.65 458.792 664.297C452.114 664.645 393.087 692 381.36 696.855C351.839 709.075 321.958 720.973 292.04 732.178C287.05 734.046 280.526 736.885 275.164 736.507C264.401 735.748 226.102 717.837 214.269 712.935C199.013 706.615 183.454 700.831 168.423 694.003C184.069 687.276 199.662 678.482 215.691 671.98C228.432 666.811 236.829 659.733 251.771 659.868C264.412 659.982 274.155 657.164 285.15 651.604L284.1 651.06C263.732 660.563 254.645 657.631 233.929 660.837C233.07 660.97 233.125 662.048 230.02 662.07C221.606 657.881 228.519 647.441 231.171 641.511C232.868 637.717 235.837 630.515 239.919 629.274L240.679 631.598C242.701 630.635 244.456 616.32 244.567 613.676C244.621 612.393 247.256 608.326 248.094 606.972L247.146 603.742L247.825 603.401C252.016 604.701 257.076 604.346 261.362 605.181C277.56 608.338 291.517 605.666 306.332 598.897C310.405 597.036 315.648 595.631 318.993 592.332C366.683 571.382 420.976 541.967 465.13 514.615C474.389 509.072 484.886 503.963 494.446 498.466C503.672 495.787 544.384 468.154 552.327 461.836Z"/><path fill="#A73D48" transform="scale(2.60059 2.60059)" d="M552.327 461.836C570.145 448.506 590.258 430.029 610.462 420.932C619.496 416.864 638.566 419.125 647.64 413.166C689.287 385.82 728.666 354.979 770.409 327.921C772.886 326.317 776.204 325.849 779.088 326.048C776.513 330.301 771.993 344.044 770.051 349.312C766.196 359.772 762.72 368.248 757.601 378.19C761.627 379.99 766.667 382.416 770.714 383.921C754.381 391.413 730.383 404.578 718.58 418.031C699.236 440.079 687.379 443.792 662.429 457.217L582.976 499.656C604.376 493.03 625.572 485.566 647.155 479.691C661.308 475.839 678.631 476.343 692.388 471.681C722.166 461.59 751.234 447.868 781.462 439.019C759.613 456.264 746.955 473.575 728.576 493.418C720.851 501.759 695.598 517.335 685.168 524.249C720.08 513.267 755.289 504.481 790.481 494.586C794.941 493.331 799.779 491.894 804.113 490.285C819.169 500.606 836.746 511.313 851.128 521.62C842.185 523.21 831.362 524.752 822.276 525.308C808.415 536.295 795.164 551.379 781.489 561.155C771.781 568.094 752.749 573.685 742.511 581.57C734.348 587.857 715.085 607.078 705.856 610.1C689.747 615.374 661.948 614.213 644.395 619.45C631.307 623.355 619.447 628.218 606.826 632.815L538.979 657.193C526.187 652.795 500.343 642.624 488.444 641.162C470.143 638.915 437.684 643.753 419.641 641.793C411.013 640.856 378.721 627.625 369.437 623.88C343.672 641.162 343.223 641.626 312.25 639.907C309.827 639.772 290.007 649.622 285.15 651.604L284.1 651.06C263.732 660.563 254.645 657.631 233.929 660.837C233.07 660.97 233.125 662.048 230.02 662.07C221.606 657.881 228.519 647.441 231.171 641.511C232.868 637.717 235.837 630.515 239.919 629.274L240.679 631.598C242.701 630.635 244.456 616.32 244.567 613.676C244.621 612.393 247.256 608.326 248.094 606.972L247.146 603.742L247.825 603.401C252.016 604.701 257.076 604.346 261.362 605.181C277.56 608.338 291.517 605.666 306.332 598.897C310.405 597.036 315.648 595.631 318.993 592.332C366.683 571.382 420.976 541.967 465.13 514.615C474.389 509.072 484.886 503.963 494.446 498.466C503.672 495.787 544.384 468.154 552.327 461.836Z"/><path fill="#F3BD87" transform="scale(2.60059 2.60059)" d="M1229.1 588.131L1229.61 587.339C1251.22 596.653 1272.86 608.803 1296.49 612.112C1300.98 612.74 1317.79 603.242 1322.01 603.192C1326.24 603.142 1340.32 610.114 1344.99 611.973C1356.71 616.647 1367.75 622.629 1379.53 627.021C1397.74 630.051 1424.25 622.463 1441.59 628.339L1440.78 630.361L1434.71 627.954C1425.31 631.674 1412.34 635.591 1402.52 638.839C1376.13 627.294 1348.61 614.257 1321.93 603.883C1305.36 611.663 1299.47 615.925 1280.84 609.988C1262.61 604.182 1246.16 596.733 1229.1 588.131Z"/><path fill="#EE6659" transform="scale(2.60059 2.60059)" d="M1199.7 309.203C1218.15 309.966 1359.71 309.863 1367.33 306.428L1368.15 305.242C1363.41 296.266 1335.18 297.516 1326.21 296.745C1324.83 296.627 1322.71 295.106 1321.69 294.235C1318.02 294.24 1317.25 297.44 1311.31 296.248C1313.15 294.901 1314.13 295.178 1316.61 294.868C1315.58 294.664 1314.66 294.495 1313.62 294.337L1313.69 293.545C1319.75 292.392 1328.98 293.572 1335.68 293.015C1345.3 292.216 1354.97 291.053 1364.57 290.443C1371.3 290.016 1378.58 294.884 1383.89 287.442C1386.57 286.739 1390.85 288.008 1393.98 287.838C1405.45 287.216 1415.09 287.771 1426.42 287.759C1440.25 287.745 1453.94 286.955 1467.79 288.049C1473.35 288.488 1478.85 289.848 1484.35 290.718C1491.47 291.843 1498.94 292.548 1506.12 293.245C1514.09 294.018 1519.81 291.684 1527.58 295.092C1529.59 295.972 1531.32 294.382 1532.38 296.454C1537.22 305.938 1531.1 391.939 1534.22 396.624C1534.54 397.107 1535.53 397.722 1536 398.122L1536 593.582L1536 673.822C1523.05 666.961 1509.52 661.329 1496.2 655.271C1477.76 646.891 1459.42 638.28 1440.78 630.361L1441.59 628.339C1424.25 622.463 1397.74 630.051 1379.53 627.021C1367.75 622.629 1356.71 616.647 1344.99 611.973C1340.32 610.114 1326.24 603.142 1322.01 603.192C1317.79 603.242 1300.98 612.74 1296.49 612.112C1272.86 608.803 1251.22 596.653 1229.61 587.339L1229.1 588.131C1208.32 578.064 1187.76 566.567 1168.16 554.33C1149.85 542.894 1134.35 532.454 1114.9 522.859C1087.5 509.337 1058.17 509.962 1032.22 494.645C1018.72 486.675 1007.6 474.556 995.248 464.887C987.117 458.524 978.666 455.861 970.178 450.096C962.469 444.987 955.558 435.132 948.108 430.058C933.95 420.415 914.151 413.384 898.309 406.805C903.143 402.986 964.743 405.327 972.55 407.758C1014.42 420.796 1053.17 411.948 1095.86 410.81C1116.19 408.509 1147.41 412.944 1166.41 408.033C1198.22 399.808 1225.38 394.291 1258.75 395.365C1284.4 396.191 1315.19 407.246 1340.4 407.433C1355.74 407.548 1443.94 406.31 1451.05 398.734C1450.8 396.802 1450.97 397.469 1449.18 395.808C1437.68 396.348 1425.91 390.624 1415.25 388.841L1414.47 388.716L1413.91 387.686C1419.08 379.213 1485.58 374.434 1498.22 371.125C1502.68 369.958 1507.59 369.037 1507.05 363.605C1497.14 347.135 1334.48 343.048 1306.36 347.973C1272.03 351.81 1238.12 358.696 1203.39 356.305C1183.5 354.935 1172.32 355.275 1155.83 342.938C1151.61 339.782 1142.48 338.44 1137.89 336.531C1129.25 332.936 1091.63 331.37 1085.56 328.437C1088.46 316.562 1154.94 314.394 1159.94 310.709C1163.81 311.034 1197.86 310.215 1199.7 309.203Z"/><defs><linearGradient id="gradient_4" gradientUnits="userSpaceOnUse" x1="1490.5315" y1="673.33337" x2="1486.5876" y2="624.33301"><stop offset="0" stop-color="#FAE270"/><stop offset="1" stop-color="#F5B892"/></linearGradient></defs><path fill="url(#gradient_4)" transform="scale(2.60059 2.60059)" d="M1533.54 626.784C1534.32 617.433 1532.88 605.531 1533.95 595.94C1534.11 594.444 1534.48 594.629 1536 593.582L1536 673.822C1523.05 666.961 1509.52 661.329 1496.2 655.271C1477.76 646.891 1459.42 638.28 1440.78 630.361L1441.59 628.339L1442.35 627.785C1446.19 630.075 1462.21 628.046 1467.71 628.951C1488.8 632.418 1512.59 626.291 1533.54 626.784Z"/><defs><linearGradient id="gradient_5" gradientUnits="userSpaceOnUse" x1="231.95583" y1="507.5304" x2="226.31039" y2="691.85205"><stop offset="0" stop-color="#F46B4E"/><stop offset="1" stop-color="#F2D87C"/></linearGradient></defs><path fill="url(#gradient_5)" transform="scale(2.60059 2.60059)" d="M0 513.569C41.3466 516.75 81.9553 526.688 122.997 525.856C135.703 525.598 147.984 520.778 160.045 517.596C170.493 514.84 187.27 511.87 198.071 512.514C216.692 513.623 237.581 517.869 256.114 520.874C287.403 525.949 316.614 529.844 348.447 529.376C361.606 529.183 375.657 529.343 388.404 524.664C393.751 522.702 398.499 518.245 402.822 514.54L403.495 513.963C424.213 515.162 444.389 515.509 465.13 514.615C420.976 541.967 366.683 571.382 318.993 592.332C315.648 595.631 310.405 597.036 306.332 598.897C291.517 605.666 277.56 608.338 261.362 605.181C257.076 604.346 252.016 604.701 247.825 603.401L247.146 603.742L248.094 606.972C247.256 608.326 244.621 612.393 244.567 613.676C244.456 616.32 242.701 630.635 240.679 631.598L239.919 629.274C235.837 630.515 232.868 637.717 231.171 641.511C228.519 647.441 221.606 657.881 230.02 662.07C233.125 662.048 233.07 660.97 233.929 660.837C254.645 657.631 263.732 660.563 284.1 651.06L285.15 651.604C274.155 657.164 264.412 659.982 251.771 659.868C236.829 659.733 228.432 666.811 215.691 671.98C199.662 678.482 184.069 687.276 168.423 694.003C153.564 688.429 137.064 681.431 121.111 681.559C111.005 681.639 96.6401 680.246 87.5422 684.949C58.0529 700.194 29.4011 717.07 0 732.52L0 685.415L0 625.218L0 513.569Z"/><path fill="#EE6659" transform="scale(2.60059 2.60059)" d="M204.382 590.581C229.165 596.737 262.63 608.988 288.922 603.793C293.232 602.942 312.388 594.497 318.993 592.332C315.648 595.631 310.405 597.036 306.332 598.897C291.517 605.666 277.56 608.338 261.362 605.181C257.076 604.346 252.016 604.701 247.825 603.401L247.146 603.742L248.094 606.972C247.256 608.326 244.621 612.393 244.567 613.676C244.456 616.32 242.701 630.635 240.679 631.598L239.919 629.274C235.837 630.515 232.868 637.717 231.171 641.511C228.519 647.441 221.606 657.881 230.02 662.07C233.125 662.048 233.07 660.97 233.929 660.837C254.645 657.631 263.732 660.563 284.1 651.06L285.15 651.604C274.155 657.164 264.412 659.982 251.771 659.868C236.829 659.733 228.432 666.811 215.691 671.98C199.662 678.482 184.069 687.276 168.423 694.003C153.564 688.429 137.064 681.431 121.111 681.559C111.005 681.639 96.6401 680.246 87.5422 684.949C58.0529 700.194 29.4011 717.07 0 732.52L0 685.415C37.4291 670.414 77.9975 648.394 115.6 632.145L204.382 590.581Z"/><path fill="#EE6659" transform="scale(2.60059 2.60059)" d="M494.446 498.466C492.886 497.415 491.335 497.168 489.505 497.017C475.246 495.839 401.51 492.65 395.864 480.297C396.047 478.916 396.198 477.679 397.762 476.854C404.657 473.217 419.072 471.653 426.921 470.316C459.449 464.773 490.221 458.46 523.504 459.546C534.268 459.898 541.491 459.498 552.327 461.836C544.384 468.154 503.672 495.787 494.446 498.466Z"/></svg>